<svg width="32" height="32" viewBox="0 0 32 32" xmlns="http://www.w3.org/2000/svg">
<rect width="32" height="32" fill="white"/>
<mask id="path-1-inside-1" fill="white">
<path fill-rule="evenodd" clip-rule="evenodd" d="M9.43356 18.7151C11.2285 21.824 15.2038 22.8892 18.3127 21.0942C21.4216 19.2993 22.4868 15.324 20.6919 12.2151C19.7234 10.5376 18.12 9.45506 16.3605 9.09587C17.2626 12.1296 16.0088 15.4962 13.1477 17.1481C11.8748 17.8829 10.4672 18.1726 9.10493 18.0655C9.20125 18.2854 9.31071 18.5023 9.43356 18.7151Z"/>
</mask>
<path d="M16.3605 9.09587L16.5605 8.11608L14.9267 7.78255L15.402 9.38089L16.3605 9.09587ZM9.10493 18.0655L9.18335 17.0686L7.51932 16.9377L8.18893 18.4667L9.10493 18.0655ZM17.8127 20.2282C15.1821 21.747 11.8184 20.8457 10.2996 18.2151L8.56754 19.2151C10.6386 22.8023 15.2255 24.0313 18.8127 21.9603L17.8127 20.2282ZM19.8259 12.7151C21.3447 15.3457 20.4433 18.7094 17.8127 20.2282L18.8127 21.9603C22.3999 19.8892 23.629 15.3023 21.5579 11.7151L19.8259 12.7151ZM16.1605 10.0757C17.6515 10.38 19.0064 11.2957 19.8259 12.7151L21.5579 11.7151C20.4403 9.77936 18.5886 8.53009 16.5605 8.11608L16.1605 10.0757ZM15.402 9.38089C16.1752 11.9812 15.0989 14.8668 12.6477 16.2821L13.6477 18.0141C16.9186 16.1256 18.35 12.278 17.319 8.81085L15.402 9.38089ZM12.6477 16.2821C11.5555 16.9126 10.3504 17.1604 9.18335 17.0686L9.02652 19.0624C10.5839 19.1849 12.1942 18.8533 13.6477 18.0141L12.6477 16.2821ZM10.2996 18.2151C10.1952 18.0343 10.1025 17.8505 10.0209 17.6643L8.18893 18.4667C8.30004 18.7204 8.42617 18.9702 8.56754 19.2151L10.2996 18.2151Z" fill="#40413B" mask="url(#path-1-inside-1)"/>
</svg>
